# xmcd
# 
# Track frame offsets:
#     150
#     18535
#     35840
#     52202
#     72025
#     95850
#     116072
#     135352
#     151987
#     173085
#     193002
#     212305
# 
# Disc length: 3150
# 
# Revision: 1
# Processed by: cddbd v1.5.2PL0 Copyright (c) Steve Scherf et al.
# Submitted via: fre:ac v1.0.17
# 
DISCID=a90c4c0c
DTITLE=Color Me Badd - Awakening
DYEAR=1998
DGENRE=R&B
TTITLE0=All The Way (Freaky Style)
TTITLE1=Written On Youre Face
TTITLE2=Kissing You
TTITLE3=Love Is Stronger Than Pride
TTITLE4=Youre Touch
TTITLE5=I´ll Never Love This Way Again
TTITLE6=Remember When
TTITLE7=I´ts Gonna be Alright
TTITLE8=Farmer´s Daughter
TTITLE9=All The Way (Part II)
TTITLE10=How Could This Be
TTITLE11=Secret Lovers
EXTD=
EXTT0=
EXTT1=
EXTT2=
EXTT3=
EXTT4=
EXTT5=
EXTT6=
EXTT7=
EXTT8=
EXTT9=
EXTT10=
EXTT11=
PLAYORDER=
